/* XPM */
static char *eb8b668f1f2641bfa726783dddafd242cV3vtLv8q63q9pm2[] = {
/* columns rows colors chars-per-pixel */
"32 32 130 2 ",
"   c None",
".  c #003C00",
"X  c #0D3900",
"o  c #143C03",
"O  c #004400",
"+  c #134301",
"@  c #184002",
"#  c #1D4C03",
"$  c #1B5102",
"%  c #204702",
"&  c #224B03",
"*  c #294E03",
"=  c #2B5603",
"-  c #2F5904",
";  c #265008",
":  c #2F580A",
">  c #325C03",
",  c #385E06",
"<  c #294718",
"1  c #26581B",
"2  c #375C1A",
"3  c #385E1B",
"4  c #326100",
"5  c #396207",
"6  c #3B6308",
"7  c #365B30",
"8  c #5E7764",
"9  c #5F7865",
"0  c #607966",
"q  c #657D6A",
"w  c #6A7A6D",
"e  c #008600",
"r  c #018B00",
"t  c #128F01",
"y  c #039100",
"u  c #139301",
"i  c #1E9702",
"p  c #1D9E06",
"a  c #169417",
"s  c #1B9617",
"d  c #298300",
"f  c #239903",
"g  c #399F05",
"h  c #239A18",
"j  c #24A206",
"k  c #28A307",
"l  c #35A004",
"z  c #3BA205",
"x  c #3EA805",
"c  c #34A708",
"v  c #3EAC09",
"b  c #3BB10C",
"n  c #568700",
"m  c #5D8C00",
"M  c #628E00",
"N  c #649101",
"B  c #6B9700",
"V  c #759E00",
"C  c #70990F",
"Z  c #47A606",
"A  c #4EA706",
"S  c #46A906",
"D  c #4AAB06",
"F  c #46AF09",
"G  c #52AB07",
"H  c #5AAE05",
"J  c #51AB08",
"K  c #5DAF08",
"L  c #48B00B",
"P  c #57B307",
"I  c #5CB106",
"U  c #5FB108",
"Y  c #6BB605",
"T  c #64B308",
"R  c #69B409",
"E  c #64B908",
"W  c #6EB809",
"Q  c #63B31E",
"!  c #6DB71E",
"~  c #7CBF21",
"^  c #73C10C",
"/  c #69816E",
"(  c #6D8375",
")  c #708577",
"_  c #718679",
"`  c #72887A",
"'  c #86C20B",
"]  c #8DC90C",
"[  c #94C70D",
"{  c #95C90D",
"}  c #9ED20D",
"|  c #95CE10",
" . c #9DD211",
".. c #A4CE0D",
"X. c #ABD207",
"o. c #A6D00E",
"O. c #AAD10C",
"+. c #B2D50F",
"@. c #B3DA0E",
"#. c #A4D311",
"$. c #AFD711",
"%. c #A9D110",
"&. c #B7D710",
"*. c #B6D610",
"=. c #B7D710",
"-. c #B4DD13",
";. c #B4DB10",
":. c #B9DB10",
">. c #BADC10",
",. c #BDDD10",
"<. c #BEE50F",
"1. c #BDE114",
"2. c #9DCC21",
"3. c #AFD424",
"4. c #B5DA22",
"5. c #BEDB26",
"6. c #C3E40F",
"7. c #C2E111",
"8. c #C3E214",
"9. c #C3E414",
"0. c #C5E415",
"q. c #C5E415",
"w. c #D0EE16",
"e. c #CAE62A",
"r. c #BDC4C7",
"t. c #CFD6D9",
"y. c #F4F2F2",
"u. c #F8F8FA",
"i. c #FEFBFD",
"p. c white",
/* pixels */
"                                                                ",
"                                                                ",
"                                                                ",
"                                                                ",
"            ( ( ( ( ( ( ( ( ) ( ) ( ( ( ( ( ( ) ( ( ( (         ",
"          < n m M M M M M M m m M M M M m M M m m m N 4 w       ",
"          1 S F p ^ 8.-.8.#.c F k j j j j j f v c c b d q       ",
"          2 ....e J &...O.' Z %.t e e e r r e z H A | V q       ",
"          3 X.o.r G =.o.+.' Z +.u r r y r r r z T G  .V q       ",
"          2 ..o.y H =.o.+.' S +.u r r r r r r g T G #.V 0       ",
"          3 O.o.r G =.o.$.' S *.u r r r r r e z T G  .V /       ",
"          2 O.#.r G &.o.*.' S O.u r r r r r r l T G  .V 0       ",
"          3 X.o.y K =.o.*.' S *.u r r r r r r g T G #.V /       ",
"          3 ..o.r G &.%.O.' S *.u e r r r r r z T J  .V 0       ",
"          2 X.*.y P ,.O.>.] D >.u r r r y y r S E P #.V q       ",
"          7 : # . @ * # # @ + & . . O . . . . % @ o # ;         ",
"          u.( X 6 # . = = > $ $ - O O O O O $ # - > o           ",
"          p.` B w.P y +.@.6.E W } r y y y r f E W <.6           ",
"          p._ M 0.G r O.%.+.H W [ r r r r r f K T @.5   y.      ",
"          i._ N 0.A r %.%.&.T W [ r r y r e i U T @.5 r.        ",
"          p.` M 0.J r o.%.&.T W { r r r r r f K R ;.5 t.        ",
"            _ N 0.J y o.O.&.K W { e r r r r f K R ;.5           ",
"            ` N 8.G y O.%.&.U W { r r r r r i K T @.5           ",
"            ` M 0.G r %.O.&.U W { r r r r r f K R @.5           ",
"              N 8.J y %.O.=.U W [ r r r r e f K R @.5           ",
"            _ N 8.G r O.O.=.T W { r r r r r i K T @.5           ",
"            _ N 0.G r o.%.&.U W | e r r r r f T R @.5           ",
"            _ M 6.G y ..O.+.U Y [ e r r r e f H Y @.,           ",
"              C e.Q s 3.3.5.! ~ 2.a a a s a h ! Q 4.            ",
"                                                                ",
"                                                                ",
"                                                                "
};
