/* XPM */
static char *floor_tile32[] = {
/* columns rows colors chars-per-pixel */
"32 32 6 1 ",
"  c #292E32",
". c #353D40",
"X c #505C60",
"o c #617072",
"O c #889694",
"+ c #A6AFAB",
/* pixels */
"    ........................XXXX",
"    ........................XXXX",
"    ........................XXXX",
"    ........................XXXX",
"....ooooooooooooooooooooooooOOOO",
"....ooooooooooooooooooooooooOOOO",
"....ooooooooooooooooooooooooOOOO",
"....ooooooooooooooooooooooooOOOO",
"....ooooooooooooooooooooooooOOOO",
"....ooooooooooooooooooooooooOOOO",
"....ooooooooooooooooooooooooOOOO",
"....ooooooooooooooooooooooooOOOO",
"....ooooooooooooooooooooooooOOOO",
"....ooooooooooooooooooooooooOOOO",
"....ooooooooooooooooooooooooOOOO",
"....ooooooooooooooooooooooooOOOO",
"....ooooooooooooooooooooooooOOOO",
"....ooooooooooooooooooooooooOOOO",
"....ooooooooooooooooooooooooOOOO",
"....ooooooooooooooooooooooooOOOO",
"....ooooooooooooooooooooooooOOOO",
"....ooooooooooooooooooooooooOOOO",
"....ooooooooooooooooooooooooOOOO",
"....ooooooooooooooooooooooooOOOO",
"....ooooooooooooooooooooooooOOOO",
"....ooooooooooooooooooooooooOOOO",
"....ooooooooooooooooooooooooOOOO",
"....ooooooooooooooooooooooooOOOO",
"XXXXOOOOOOOOOOOOOOOOOOOOOOOO++++",
"XXXXOOOOOOOOOOOOOOOOOOOOOOOO++++",
"XXXXOOOOOOOOOOOOOOOOOOOOOOOO++++",
"XXXXOOOOOOOOOOOOOOOOOOOOOOOO++++"
};