/* XPM */
static char *_e54c3f2591d4200f19d755ada606490NTH4xEAjgosIh39C[] = {
/* columns rows colors chars-per-pixel */
"32 32 199 2 ",
"   c None",
".  c #16110E",
"X  c #040302",
"o  c #281B14",
"O  c #29201A",
"+  c #3E2F2E",
"@  c #383527",
"#  c #332833",
"$  c #4D2008",
"%  c #482716",
"&  c #5A2D14",
"*  c #572E19",
"=  c #5C331B",
"-  c #573118",
";  c #64290F",
":  c #6E2606",
">  c #792A09",
",  c #662E14",
"<  c #62361B",
"1  c #6C3517",
"2  c #7C3C18",
"3  c #432A27",
"4  c #4C3620",
"5  c #593927",
"6  c #713B21",
"7  c #7D3E21",
"8  c #4B4C33",
"9  c #574938",
"0  c #51533E",
"q  c #55442E",
"w  c #794727",
"e  c #6B4A35",
"r  c #774D32",
"t  c #73513A",
"y  c #293E46",
"u  c #4E3D43",
"i  c #174A54",
"p  c #245347",
"a  c #274752",
"s  c #365150",
"d  c #306254",
"f  c #156066",
"g  c #266466",
"h  c #306D61",
"j  c #2B7A6F",
"k  c #5F5253",
"l  c #474950",
"z  c #664F40",
"x  c #615F42",
"c  c #795B46",
"v  c #6F564E",
"b  c #575965",
"n  c #616F76",
"m  c #706671",
"M  c #6B646F",
"N  c #8B2801",
"B  c #86340D",
"V  c #913108",
"C  c #8A3C17",
"Z  c #88421D",
"A  c #95451D",
"S  c #99451A",
"D  c #A44D1F",
"F  c #B24E1C",
"G  c #8B4A25",
"H  c #854825",
"J  c #944B24",
"K  c #9B4D23",
"L  c #8F542F",
"P  c #9B5629",
"I  c #814D34",
"U  c #825436",
"Y  c #97573B",
"T  c #A14D23",
"R  c #AC5422",
"E  c #A45626",
"W  c #B56229",
"Q  c #BA6D32",
"!  c #C15C1B",
"~  c #CB5B11",
"^  c #C5550C",
"/  c #CD621C",
"(  c #D66A1A",
")  c #E7751C",
"_  c #E97C1D",
"`  c #C35F21",
"'  c #C36223",
"]  c #CD6927",
"[  c #D46D24",
"{  c #D06325",
"}  c #DC7324",
"|  c #DC7629",
" . c #D57838",
".. c #CD7635",
"X. c #E47A22",
"o. c #E67D2A",
"O. c #E67828",
"+. c #825B45",
"@. c #896248",
"#. c #986C53",
"$. c #94715D",
"%. c #836652",
"&. c #A26A4F",
"*. c #A37756",
"=. c #AB764E",
"-. c #947562",
";. c #967866",
":. c #916E73",
">. c #90797F",
",. c #8A756C",
"<. c #AA7F65",
"1. c #A27F66",
"2. c #CA7F4C",
"3. c #3B8071",
"4. c #758358",
"5. c #E9801E",
"6. c #E6812A",
"7. c #E9842A",
"8. c #EB8526",
"9. c #F58B28",
"0. c #E68431",
"q. c #E78E3B",
"w. c #F59332",
"e. c #958C71",
"r. c #B78868",
"t. c #BC9274",
"y. c #B08975",
"u. c #93A277",
"i. c #D78449",
"p. c #E78B43",
"a. c #E08646",
"s. c #E69350",
"d. c #EA9443",
"f. c #C08463",
"g. c #D29569",
"h. c #C69877",
"j. c #D49B74",
"k. c #DB9F76",
"l. c #E79C64",
"z. c #DBA47C",
"x. c #E2A67C",
"c. c #E8A267",
"v. c #037A80",
"b. c #117782",
"n. c #0D979C",
"m. c #15ADA9",
"M. c #16ABAA",
"N. c #06E6E6",
"B. c #9C8C8A",
"V. c #958785",
"C. c #99918E",
"Z. c #98959B",
"A. c #A79C9E",
"S. c #AF9DA3",
"D. c #B099A3",
"F. c #9EADBC",
"G. c #B8AAAC",
"H. c #A8ACB3",
"J. c #ABB2BA",
"K. c #BBB1B1",
"L. c #CA9D80",
"P. c #DDA781",
"I. c #DCAC8A",
"U. c #D5A686",
"Y. c #E3B18E",
"T. c #E4B492",
"R. c #EDB993",
"E. c #E7B996",
"W. c #F0BD99",
"Q. c #E2A986",
"!. c #C3BBBB",
"~. c #E1BAA2",
"^. c #E6C3AA",
"/. c #EED4BF",
"(. c #F3CCB1",
"). c #B7BFC7",
"_. c #BAC4CD",
"`. c #C6C6C9",
"'. c #CCCCD1",
"]. c #C6CED6",
"[. c #CED3D5",
"{. c #DAD8D9",
"}. c #E3D6C9",
"|. c #E3D4D1",
" X c #E7D8D3",
".X c #E4DCD9",
"XX c #DDDFE3",
"oX c #E3DEE2",
"OX c #DEE3EA",
"+X c #E6E2E5",
"@X c #EAE5E7",
"#X c #E6E5EB",
"$X c #E8E5EA",
"%X c #E8E9EE",
"&X c #E6E9F2",
"*X c #EFECF1",
"=X c #E2E7F1",
"-X c #F1EFF4",
";X c #F6F5F7",
/* pixels */
"                                                                ",
"                        b.l e r G G r 0 g                       ",
"                    f m r.0.w.9.8.8.8.X.f.B.l                   ",
"                  s K.(.w.8.8.6.6.| } [ ( }.#X>.a               ",
"                l }.;Xd._ 7.7.7.6.X.O.| ( U.=X$XD.y             ",
"                |.-X Xq.8.7.o.o.o.6.O.O.( ~.&X'.{.G.a           ",
"              t.;X+X#Xs.) 6.O.o.o.o.0.) a.oX@XXX_.`.#.          ",
"            6 w.|.#X#X/.0.) _ O.X.) ) s. X$XoXoX`.W ( 6         ",
"            ' 9.^.&X+X%X XQ.s.q.p.l.~.@X#X+X+X=Xg.~ ` ! a       ",
"            X.5.E.&X+X+X&X&X$XoX@X&X&X+X+X+X+X+X2./ ! ( 5       ",
"            8.X.^.&X+X+XoXoX@X$X#XoXoX#X#X+X#X.X| ( ~ [ H       ",
"            X.7. X$X+X%X-X#XoXoX+X-X*X@X+X+X+X+X2./ ` [ G       ",
"            ~ c.OXoX*X'.e.;.$.$.-.e.G.oX-X+X+X%XI.~ ' } 6       ",
"              }.`.%XG.c r.z.U.P.P.h.*.,.K.;X*XXX[.2.^ ] +       ",
"              '.].V.5 h.E.L.Y.T.L.U.W.U.@.,.K.+X].H.h.+.i       ",
"                S.& e W.%.o Y.T.o c T.P.r B < B.).).).#         ",
"                  - @.W.e . T.Y.X v R.j.w S S < J.H.3           ",
"                2 2 @.W.r.e.T.Y.;.t.P.k.U Z w < v #             ",
"                w 1 c R.Y.Y.U.I.Y.Q.j.g.r.& 6 K > h             ",
"            D J G ; & h.Y.h.*.=.f.g.g.x.&.@ Z J < q q           ",
"            V L V     * t.Q.z.z.x.j.h.I p N.9 ; 1 T J N         ",
"                      V.5 r @.*.@.t 3 l n n.N.d A J G >         ",
"                    D.&.[ r 9 H H E 5 _.@X:.n.m.N C >           ",
"                  <.v / } C.J.Q o.O.H H.|.{.m v.3.0             ",
"                I.L.R O.[ =.$...[ ] F k XXZ.,.e d               ",
"                  9 r ' O.W P } { ] { K b y.R.E.Y               ",
"                    @ % , e.u.L P H 1 = o <.I Y G               ",
"                    A J 5 8 4.4.x % < < = O                     ",
"                  : E K J 7 $ p 4 A R R K 1                     ",
"                    > C > > 8   = A J J R N                     ",
"                      h j       j , , , < s                     ",
"                                    m.m.                        "
};
