/* XPM */
static char *wall_tile32[] = {
/* columns rows colors chars-per-pixel */
"32 32 7 1 ",
"  c black",
". c #0B0B0B",
"X c #1B1B1B",
"o c gray19",
"O c #403F3F",
"+ c gray33",
"@ c #606060",
/* pixels */
"XXXX    ........ooooooooOOOO....",
"XXXX    ........ooooooooOOOO....",
"XXXX    ........ooooooooOOOO....",
"XXXX    ........ooooooooOOOO....",
"....XXXX    ....................",
"....XXXX    ....................",
"....XXXX    ....................",
"....XXXX    ....................",
"++++....XXXX    @@@@....OOOOOOOO",
"++++....XXXX    @@@@....OOOOOOOO",
"++++....XXXX    @@@@....OOOOOOOO",
"++++....XXXX    @@@@....OOOOOOOO",
"........XXXX    ................",
"........XXXX    ................",
"........XXXX    ................",
"........XXXX    ................",
"++++++++@@@@XXXX    ooooOOOO....",
"++++++++@@@@XXXX    ooooOOOO....",
"++++++++@@@@XXXX    ooooOOOO....",
"++++++++@@@@XXXX    ooooOOOO....",
"................XXXX............",
"................XXXX............",
"................XXXX............",
"................XXXX............",
"++++....++++++++XXXX....OOOOOOOO",
"++++....++++++++XXXX....OOOOOOOO",
"++++....++++++++XXXX....OOOOOOOO",
"++++....++++++++XXXX....OOOOOOOO",
"....................XXXX........",
"....................XXXX........",
"....................XXXX........",
"....................XXXX........"
};