/* XPM */
static char *bbcacf5ddf8e4b5bf6dd6372187b0f8a9j2KvQhwexBu1FxH[] = {
/* columns rows colors chars-per-pixel */
"32 32 194 2 ",
"   c None",
".  c #1C082A",
"X  c #1D122E",
"o  c #15142F",
"O  c #0D1E36",
"+  c #181631",
"@  c #151D35",
"#  c #1A1F36",
"$  c #111B38",
"%  c #121735",
"&  c #240E26",
"*  c #2A0E27",
"=  c #200F2B",
"-  c #2B0F28",
";  c #2D072D",
":  c #340D29",
">  c #2D1226",
",  c #261029",
"<  c #2D1429",
"1  c #251D2E",
"2  c #2C1D2D",
"3  c #341525",
"4  c #3B1624",
"5  c #371824",
"6  c #3C1925",
"7  c #3D1228",
"8  c #331C2A",
"9  c #201730",
"0  c #251D31",
"q  c #291F30",
"w  c #162034",
"e  c #1A2034",
"r  c #35212D",
"t  c #3B222A",
"y  c #242234",
"u  c #292433",
"i  c #322432",
"p  c #382633",
"a  c #302932",
"s  c #55261E",
"d  c #5E271F",
"f  c #5C291D",
"g  c #6A2C1D",
"h  c #752E1C",
"j  c #793A1F",
"k  c #7E341A",
"l  c #4B0E2C",
"z  c #570F2E",
"x  c #590F2E",
"c  c #451726",
"v  c #4C1727",
"b  c #421A24",
"n  c #4B1A25",
"m  c #44152A",
"M  c #4A1428",
"N  c #541C24",
"B  c #541529",
"V  c #5D162A",
"C  c #5B1928",
"Z  c #591C25",
"A  c #4D0930",
"S  c #620F2F",
"D  c #64162B",
"F  c #6D152D",
"G  c #651829",
"H  c #6C1B29",
"J  c #661E26",
"K  c #73172D",
"L  c #7A172D",
"P  c #74192B",
"I  c #7B1B2A",
"U  c #640E30",
"Y  c #6D0E31",
"T  c #6D1030",
"R  c #4B2021",
"E  c #42202C",
"W  c #472E2D",
"Q  c #4E2E2A",
"!  c #51282F",
"~  c #5C2B2D",
"^  c #552C26",
"/  c #5D3022",
"(  c #5B3528",
")  c #532730",
"_  c #60282F",
"`  c #6C2D2D",
"'  c #672324",
"]  c #762226",
"[  c #743E23",
"{  c #85371A",
"}  c #8E311F",
"|  c #803919",
" . c #8C3C18",
".. c #943A1A",
"X. c #9D381D",
"o. c #A3361E",
"O. c #A8371F",
"+. c #A83A1D",
"@. c #B43D1D",
"#. c #BF3D1E",
"$. c #851F2A",
"%. c #891E2B",
"&. c #8F2725",
"*. c #812C20",
"=. c #8D2B23",
"-. c #862029",
";. c #8E202B",
":. c #962D22",
">. c #9B2B25",
",. c #992428",
"<. c #87302B",
"1. c #853622",
"2. c #9C3320",
"3. c #973028",
"4. c #A22C25",
"5. c #AD2F27",
"6. c #A32828",
"7. c #A92929",
"8. c #A23222",
"9. c #AA3222",
"0. c #B43920",
"q. c #BA3622",
"w. c #DE3E1F",
"e. c #C02A29",
"r. c #C2202B",
"t. c #D82D26",
"y. c #C63621",
"u. c #CD3426",
"i. c #E03922",
"p. c #87441F",
"a. c #904118",
"s. c #9A4515",
"d. c #A44A13",
"f. c #AC4A16",
"g. c #A2441B",
"h. c #AC401A",
"j. c #A54315",
"k. c #B24C14",
"l. c #BA4B15",
"z. c #B4451A",
"x. c #BB4319",
"c. c #BA4517",
"v. c #B95310",
"b. c #B3641B",
"n. c #884420",
"m. c #CD580F",
"M. c #DF5C0F",
"N. c #D3590D",
"B. c #C44917",
"V. c #C94E15",
"C. c #C5451A",
"Z. c #CD471A",
"A. c #D34F16",
"S. c #D84E17",
"D. c #D3461A",
"F. c #DC441C",
"G. c #D04819",
"H. c #DD491B",
"J. c #C15814",
"K. c #CB5713",
"L. c #DB5412",
"P. c #DD5911",
"I. c #E84E17",
"U. c #E5441D",
"Y. c #E74B19",
"T. c #E64C19",
"R. c #F24B1C",
"E. c #E55914",
"W. c #ED5D12",
"Q. c #E55216",
"!. c #F45C12",
"~. c #FA5D13",
"^. c #F55119",
"/. c #FA5716",
"(. c #D86F0F",
"). c #DE6014",
"_. c #EC630C",
"`. c #F3630C",
"'. c #FE660D",
"]. c #F8660C",
"[. c #F66909",
"{. c #FC6C09",
"}. c #FF7107",
"|. c #FF7C06",
" X c #FF7D0D",
".X c #E2681C",
"XX c #F76010",
"oX c #FF691D",
"OX c #F57116",
"+X c #D14624",
"@X c #DC5D23",
"#X c #E14621",
"$X c #EF811D",
"%X c #FF8410",
/* pixels */
"                        ] P B > V K 4 4                         ",
"                  F L B &.7.D G G L v 4 4 4 4                   ",
"              K P K F x @.o.Y H B G D B 6 > b { :.              ",
"            K K F P F G $.x.N - c n J Z 7 X._.k.] Z             ",
"        B L K K v G L L l l.s =.x.'.S._.'.R...& > 4 8 y         ",
"        G L F C K K K V B @.).E.%Xo.L &.2.S. .> b 4 4 5         ",
"      L F G V K v c K P F A.i..XP.: c K U I V.b 3 4 4 4 y       ",
"    c F G G L L v G K L S C.Y.].>.m v L K T H k.4 4 4 4 y y     ",
"    C c 6 F K K L K P T L 0.A.>.M 4 K F V P > =.' 3 4 4 2 y     ",
"  L B 5 G K K P K F D P _.2.A M 4 B K H K F 4 M 5.' 3 4 2 q y   ",
"  K L K L K F T T ;.4.B.x.F C F F K K K K K 4 c  X[ * b 8 q y   ",
"  L U D T H ,.Z.C.u.5.] S K L L P K K K K L B > j.N.> & 2 i y   ",
"7.;.,.z.L.x.G.,.P C B V L K K G G K K K F G G c > x.*.| 1 @ # y ",
"F F 2.9.q.T.F T D G L M B K K V G K K K G c c c 3 ,.y.| >.z.n.@ ",
"L K B z V -.B.I K L K G c K K L K K K G B V 6 * g {.3 * E a _ <.",
"G V L G C M L c.L K K v 3 V L F K L F G G 4 b b m.~...> q 1 w ! ",
"4 c G L K F P Q.q.D K L 4 V K K F G %.F c c ; v._.e.:.1 8 y y e ",
"4 c B K L D >./.%.c 4 c b F K K F c 6.H c N f.I.k.v 5 2 q y y y ",
"4 4 v B F :.}.:.U K B b V L K K K K H V._._.L.oXb.. t 2 y y y y ",
"4 4 4 m *.@.x.M.I L Y F F F K K K Y X.!.T.+.3 (.!.m o 2 y y y y ",
"  4 3 N V.S F I G.S.+.>.,.I K P K l d.w.H.f > 5 S.z.[ t e y y   ",
"  4 4 b f c K K c.I O.>.XXM.F z : a.].R.l.- b 3 t j l.m.a y y   ",
"  4 5 4 3 3 G M.b 3 . *.!.D.o.} d./.t.$X|.h 3 r 2 + @ W [ @ u   ",
"    2 8 4 n c.U...C }  .s.Y.{.!.^.F.@X+X~.k . r q y u $ ) ~     ",
"    2 u > a.].w.H.h.c.7 3 z.8.E.!.U.OX+Xr.W./ 1 y y u # ~ `     ",
"      y 8 + s.v.s , b 8.4.c & g [.[.[.W.^.!._.! e y y y #       ",
"        y 0 1.^ . b 3 6 6 8 6 < 6 6 8 t f.[.J.$ u y y y         ",
"        e p 3.@ r 2 2 2 2 8 2 8 2 2 2 y % W n.( # y y y         ",
"            u y y y u 2 2 2 q 2 2 y y y u @ i g.u y             ",
"              y y y y y y y y y y y y y y w ` _ O               ",
"                  y y y y y y y y y y y y y y                   ",
"                        y y y y y y y y                         "
};
